<svg
 xmlns="http://www.w3.org/2000/svg"
 xmlns:xlink="http://www.w3.org/1999/xlink"
 width="655px" height="800px">
<path fill-rule="evenodd"  fill="rgb(0, 0, 0)"
 d="M653.939,585.951 L653.713,586.662 C648.137,604.532 631.611,651.294 598.667,699.458 C567.097,745.585 531.314,797.873 473.034,798.959 C445.791,799.470 427.354,791.456 409.455,783.709 C391.294,775.847 372.513,767.714 343.084,767.714 C312.151,767.714 292.429,776.119 273.361,784.249 C256.376,791.485 238.810,798.972 214.501,799.942 C213.500,799.982 212.522,800.000 211.547,800.000 C159.806,800.000 122.031,751.544 84.719,697.561 C9.970,589.586 -33.000,411.510 34.594,294.164 C70.141,232.314 134.619,193.259 202.856,192.255 C203.535,192.242 204.224,192.234 204.924,192.234 C234.272,192.234 261.994,203.238 286.452,212.949 C304.743,220.208 320.536,226.479 332.708,226.479 C343.540,226.479 359.245,220.284 377.428,213.112 C403.769,202.721 436.555,189.790 470.781,189.790 C475.164,189.790 479.529,190.002 483.758,190.424 C512.898,191.678 585.277,202.097 632.501,271.232 C633.496,272.691 633.863,274.495 633.512,276.228 C633.161,277.965 632.125,279.483 630.639,280.440 L629.999,280.839 C616.278,289.330 547.864,336.182 548.741,424.656 C549.688,533.553 639.714,573.508 649.978,577.707 C650.064,577.744 650.373,577.872 650.457,577.911 C653.502,579.309 655.001,582.776 653.939,585.951 ZM334.462,194.862 C331.626,194.859 328.779,194.749 325.989,194.531 C322.904,194.292 320.409,191.925 320.002,188.856 C313.522,139.815 338.119,91.161 363.299,61.981 C392.926,27.263 442.496,1.817 483.818,0.134 C487.210,-0.000 490.222,2.543 490.600,5.969 C495.392,49.676 479.551,98.470 448.220,136.492 C418.454,172.499 374.867,194.862 334.462,194.862 Z"/>
</svg>
