<svg
 xmlns="http://www.w3.org/2000/svg"
 xmlns:xlink="http://www.w3.org/1999/xlink"
 width="684px" height="800px">
<path fill-rule="evenodd"  fill="rgb(0, 0, 0)"
 d="M661.991,642.333 C638.538,632.726 628.505,619.976 629.476,600.951 C630.475,578.745 617.879,562.479 611.898,556.054 C615.512,542.246 626.071,494.481 611.909,452.994 C596.689,408.588 550.223,340.766 502.278,274.098 C482.650,246.719 481.722,216.959 480.649,182.498 C479.621,149.630 478.462,112.373 460.138,70.956 C440.213,25.860 400.235,0.000 350.445,0.000 C320.827,0.000 290.425,9.259 267.028,25.401 C219.120,58.474 225.453,130.582 229.643,178.296 C230.218,184.830 230.758,191.002 231.072,196.271 C233.863,243.002 231.324,267.632 228.004,275.118 C225.857,280.010 215.284,293.933 204.095,308.673 C192.523,323.918 179.404,341.198 168.650,357.301 C155.819,376.677 145.461,406.293 135.444,434.933 C128.115,455.891 121.192,475.685 114.452,487.516 C101.680,510.272 104.858,531.492 107.511,541.300 C102.676,544.659 95.690,551.274 89.793,563.744 C82.666,578.957 68.204,587.133 38.132,592.917 C24.312,595.744 14.783,601.557 9.801,610.191 C2.550,622.758 6.500,638.549 10.102,649.339 C15.425,665.203 12.108,675.244 6.077,693.474 C4.688,697.681 3.111,702.444 1.515,707.698 C-1.000,715.989 -0.093,723.527 4.205,730.103 C15.562,747.470 48.702,753.595 82.818,757.623 C103.187,760.042 125.482,768.191 147.045,776.076 C168.172,783.798 190.019,791.785 209.877,794.208 C212.895,794.589 215.884,794.780 218.766,794.780 C248.749,794.780 262.295,774.880 266.591,766.704 C277.361,764.506 314.505,757.466 352.788,756.521 C391.010,755.431 427.991,762.979 438.467,765.327 C441.761,771.633 450.443,786.035 464.283,793.456 C471.890,797.615 482.476,800.000 493.320,800.000 C493.322,800.000 493.320,800.000 493.322,800.000 C504.902,800.000 526.932,797.262 544.367,778.914 C561.758,760.479 605.209,736.946 636.939,719.764 C644.019,715.929 650.642,712.341 656.451,709.101 C674.274,699.218 684.000,685.096 683.132,670.357 C682.409,658.116 674.309,647.378 661.991,642.333 ZM267.420,638.784 C265.201,623.151 245.096,607.647 221.813,589.695 C202.776,575.015 181.197,558.378 175.252,544.287 C162.967,515.219 172.651,464.108 189.536,437.789 C197.880,424.611 204.695,404.627 211.288,385.301 C218.404,364.433 225.765,342.856 233.996,333.411 C247.032,318.665 259.079,289.972 261.213,267.359 C273.419,279.016 292.355,293.807 309.848,293.807 C312.541,293.807 315.155,293.455 317.655,292.749 C329.622,289.292 347.226,279.118 364.249,269.282 C378.926,260.799 397.025,250.339 403.834,249.387 C415.512,266.158 483.363,416.352 490.297,464.585 C495.782,502.750 489.987,534.299 487.074,546.655 C484.729,546.335 481.933,546.076 478.997,546.076 C460.099,546.076 455.095,556.394 453.792,562.556 C450.440,578.563 450.087,629.751 450.050,641.253 C443.216,649.937 408.657,690.835 359.042,698.186 C338.831,701.125 319.960,702.614 302.951,702.614 C288.413,702.614 279.136,701.492 275.284,700.907 L250.351,672.372 C260.182,667.517 270.010,657.271 267.420,638.784 ZM299.057,168.261 C298.279,168.597 297.512,168.956 296.760,169.339 C296.684,167.649 296.509,165.937 296.238,164.219 C293.517,148.546 283.127,137.171 271.539,137.171 C270.682,137.171 269.819,137.236 268.873,137.381 C261.978,138.529 256.571,143.710 253.608,151.054 C256.207,134.938 265.335,123.007 276.165,123.007 C288.883,123.007 299.626,140.150 299.626,160.442 C299.626,162.999 299.440,165.543 299.057,168.261 ZM397.880,180.345 C399.044,176.636 399.673,172.623 399.673,168.457 C399.673,150.060 388.005,135.647 373.107,135.647 C358.549,135.647 346.703,150.364 346.703,168.457 C346.703,169.690 346.764,170.926 346.879,172.159 C346.109,171.862 345.356,171.574 344.622,171.295 C342.947,166.220 342.099,160.924 342.099,155.519 C342.099,133.519 356.154,115.621 373.435,115.621 C390.713,115.621 404.771,133.519 404.771,155.519 C404.771,164.670 402.246,173.404 397.880,180.345 ZM385.138,223.162 C384.889,224.274 384.359,224.768 378.501,227.815 C375.543,229.355 371.862,231.272 367.254,234.079 L364.176,235.944 C351.804,243.445 322.836,261.017 314.972,262.048 C309.630,262.767 306.327,260.694 298.897,255.645 C297.222,254.504 295.439,253.292 293.537,252.072 C280.145,243.283 271.531,233.602 270.559,229.816 C274.925,226.441 285.746,217.992 291.288,212.990 C302.535,202.530 313.852,195.500 319.453,195.500 C319.750,195.500 320.017,195.521 320.294,195.574 C326.877,196.736 343.112,203.217 354.969,207.949 C360.450,210.137 365.183,212.025 368.513,213.221 C379.005,216.825 384.474,221.436 385.138,223.162 ZM479.401,712.005 C485.319,685.300 492.137,648.972 491.033,627.556 C490.779,622.690 490.348,617.394 489.931,612.274 C489.153,602.700 487.996,588.471 489.189,584.250 C489.426,584.141 489.688,584.046 489.979,583.965 C490.029,596.209 492.688,620.631 512.213,629.147 C518.032,631.686 524.682,632.972 531.977,632.972 C551.537,632.972 573.238,623.375 582.128,614.482 C587.362,609.247 591.764,602.842 594.848,597.769 C595.522,599.744 595.937,602.325 595.719,605.651 C594.557,623.710 603.332,647.669 620.030,656.497 L622.461,657.774 C628.408,660.896 644.204,669.192 644.459,673.127 C644.456,673.130 644.325,673.592 643.444,674.410 C639.487,678.026 625.560,685.141 612.093,692.020 C588.201,704.223 561.121,718.054 548.959,730.849 C531.835,748.873 512.467,760.980 500.772,760.980 C499.364,760.980 498.082,760.803 496.941,760.440 C484.239,756.479 473.783,738.147 479.401,712.005 ZM46.437,643.878 C45.141,637.814 44.118,633.027 45.217,628.390 C46.014,624.954 62.972,621.270 70.215,619.700 C80.397,617.488 90.928,615.204 97.814,611.023 C107.126,605.381 112.169,594.976 116.616,585.795 C119.836,579.156 123.161,572.292 127.118,570.039 C127.341,569.908 127.682,569.756 128.332,569.756 C135.746,569.756 151.301,585.344 160.263,599.296 C162.537,602.813 166.748,609.861 171.621,618.021 C186.192,642.409 206.145,675.812 216.566,687.008 C225.957,697.072 241.158,716.422 237.418,733.018 C234.681,745.894 220.106,756.364 216.669,758.681 C215.420,758.964 213.876,759.108 212.058,759.108 C192.114,759.108 152.633,742.510 131.421,733.592 L128.283,732.272 C116.438,727.305 97.101,724.175 78.402,721.148 C63.523,718.738 43.148,715.440 39.770,712.461 C37.033,709.390 40.209,699.404 43.009,690.594 C45.026,684.262 47.108,677.715 48.249,670.860 C49.866,659.929 47.962,651.028 46.437,643.878 Z"/>
</svg>
