<svg
 xmlns="http://www.w3.org/2000/svg"
 xmlns:xlink="http://www.w3.org/1999/xlink"
 width="800px" height="800px">
<path fill-rule="evenodd"  fill="rgb(0, 0, 0)"
 d="M793.338,380.432 L373.769,380.432 C370.147,380.432 367.212,377.498 367.212,373.877 L367.212,67.793 C367.212,64.539 369.601,61.775 372.824,61.306 L792.394,0.273 C794.284,-0.000 796.191,0.556 797.629,1.801 C799.068,3.047 799.895,4.856 799.895,6.760 L799.895,373.877 C799.895,377.498 796.960,380.432 793.338,380.432 ZM321.316,734.307 C321.019,734.307 320.720,734.286 320.423,734.249 L5.925,691.155 C2.681,690.709 0.259,687.937 0.259,684.659 L0.244,426.325 C0.244,424.586 0.934,422.919 2.164,421.689 C3.394,420.458 5.062,419.769 6.801,419.769 L321.316,419.769 C324.938,419.769 327.873,422.704 327.873,426.325 L327.873,727.751 C327.873,729.644 327.054,731.445 325.627,732.691 C324.426,733.741 322.892,734.307 321.316,734.307 ZM321.316,380.432 L6.846,380.432 C3.228,380.432 0.293,377.501 0.289,373.882 L0.002,118.155 C0.000,114.871 2.423,112.095 5.679,111.651 L320.434,68.919 C322.323,68.659 324.207,69.231 325.630,70.476 C327.054,71.722 327.873,73.521 327.873,75.414 L327.873,373.877 C327.873,377.498 324.938,380.432 321.316,380.432 ZM373.769,419.769 L793.442,419.769 C795.182,419.769 796.850,420.458 798.080,421.689 C799.310,422.919 800.000,424.586 800.000,426.325 L799.895,793.444 C799.895,795.343 799.071,797.147 797.640,798.392 C796.439,799.437 794.909,800.000 793.338,800.000 C793.033,800.000 792.730,799.980 792.422,799.938 L372.854,740.925 C369.620,740.469 367.212,737.700 367.212,734.433 L367.212,426.325 C367.212,422.704 370.147,419.769 373.769,419.769 Z"/>
</svg>
